<?xml version="1.0" encoding="iso-8859-1"?>
<!-- Generator: Adobe Illustrator 19.0.0, SVG Export Plug-In . SVG Version: 6.00 Build 0)  -->
<svg version="1.1" id="Capa_1" xmlns="http://www.w3.org/2000/svg" xmlns:xlink="http://www.w3.org/1999/xlink" x="0px" y="0px"
	 viewBox="0 0 512 512" style="enable-background:new 0 0 512 512;" xml:space="preserve">
<path style="fill:#AEADB3;" d="M315.5,400.399l-30-60C282.8,335.3,277.7,332,272,332h-92c-5.7,0-10.8,3.3-13.5,8.399l-30,60
	C131.7,410.3,138.9,422,150,422h152C313.1,422,320.3,410.3,315.5,400.399z"/>
<path style="fill:#8B8892;" d="M315.5,400.399C320.3,410.3,313.1,422,302,422h-76v-90h46c5.7,0,10.8,3.3,13.5,8.399L315.5,400.399z"
	/>
<path style="fill:#00DDC1;" d="M437,45v272H15V45c0-16.5,13.5-30,30-30h362C423.5,15,437,28.5,437,45z"/>
<path style="fill:#00C7CE;" d="M437,45v272H226V15h181C423.5,15,437,28.5,437,45z"/>
<path style="fill:#5A5A5A;" d="M452,45c0-24.901-20.099-45-45-45H45C20.099,0,0,20.099,0,45v257l46.199,30h356.6l49.2-30L452,45
	L452,45z M422,302H30V45c0-8.401,6.599-15,15-15h362c8.401,0,15,6.599,15,15V302z"/>
<path style="fill:#444444;" d="M407,0c24.901,0,45,20.099,45,45v257l-49.2,30H226v-30h196V45c0-8.401-6.599-15-15-15H226V0H407z"/>
<path style="fill:#D9D9D9;" d="M0,302v15c0,24.899,20.099,45,45,45h347c32.999,0,60-27.001,60-60l0,0H0z"/>
<path style="fill:#C8C6CD;" d="M452,302L452,302c0,32.999-27.001,60-60,60H226v-60H452z"/>
<path style="fill:#5A5A5A;" d="M512,227c0-24.901-20.099-45-45-45H347c-24.901,0-45,20.099-45,45v15h210V227z"/>
<rect x="317" y="227" style="fill:#00DDC1;" width="180" height="240"/>
<path style="fill:#5A5A5A;" d="M482.601,212h-149.7L302,242v210l41.1,30h136.8l32.1-30V242L482.601,212z M482,452H332V242h150V452z"
	/>
<path style="fill:#444444;" d="M467,182c24.901,0,45,20.099,45,45v15H407v-60H467z"/>
<path style="fill:#5A5A5A;" d="M302,452v15c0,24.899,20.099,45,45,45h120c24.901,0,45-20.101,45-45v-15H302z"/>
<rect x="407" y="227" style="fill:#00C7CE;" width="90" height="240"/>
<g>
	<polygon style="fill:#444444;" points="512,242 512,452 479.9,482 407,482 407,452 482,452 482,242 407,242 407,212 482.601,212 	
		"/>
	<path style="fill:#444444;" d="M407,452h105v15c0,24.899-20.099,45-45,45h-60V452z"/>
</g>
<g>
</g>
<g>
</g>
<g>
</g>
<g>
</g>
<g>
</g>
<g>
</g>
<g>
</g>
<g>
</g>
<g>
</g>
<g>
</g>
<g>
</g>
<g>
</g>
<g>
</g>
<g>
</g>
<g>
</g>
</svg>
